<svg xmlns="http://www.w3.org/2000/svg"  viewBox="0 0 100 100" width="512px" height="512px"><path fill="#c7ede6" d="M88.724,55.548c0.3-0.616,0.566-1.264,0.796-1.943c2.633-7.77-1.349-17.078-9.733-19.325C78.88,22.897,70.88,15.088,61.846,13.755C51.505,12.23,42.031,18.799,38.88,29.24c-3.799-1.346-7.501-1.182-10.99,0.857c-1.583,0.732-3.031,1.812-4.33,3.233c-1.907,2.086-3.147,4.719-3.652,7.495c-0.748,0.118-1.483,0.236-2.176,0.484c-4.04,1.449-6.589,4.431-7.288,8.923c-0.435,2.797,0.443,5.587,0.933,6.714c1.935,4.455,6.422,6.98,10.981,6.312c0.227-0.033,0.557,0.069,0.752,0.233c0.241,7.12,3.698,13.417,8.884,17.014c8.321,5.772,19.027,3.994,25.781-3.921c2.894,2.96,6.338,4.398,10.384,3.876c4.023-0.519,7.147-2.739,9.426-6.349c1.053,0.283,2.051,0.691,3.083,0.804c4.042,0.442,7.324-1.165,9.732-4.8c0.922-1.391,1.793-3.194,1.793-6.354C92.194,60.505,90.901,57.538,88.724,55.548z"/><path fill="#fff" d="M18.389 47.584H8.359c-.276 0-.5-.224-.5-.5s.224-.5.5-.5h10.03c.276 0 .5.224.5.5S18.665 47.584 18.389 47.584zM21.27 47.584h-1.446c-.276 0-.5-.224-.5-.5s.224-.5.5-.5h1.446c.276 0 .5.224.5.5S21.547 47.584 21.27 47.584zM25.325 47.584h-2.546c-.276 0-.5-.224-.5-.5s.224-.5.5-.5h2.546c.276 0 .5.224.5.5S25.601 47.584 25.325 47.584zM25.325 49.449h-9.617c-.276 0-.5-.224-.5-.5s.224-.5.5-.5h9.617c.276 0 .5.224.5.5S25.601 49.449 25.325 49.449zM13.977 49.449h-.58c-.276 0-.5-.224-.5-.5s.224-.5.5-.5h.58c.276 0 .5.224.5.5S14.253 49.449 13.977 49.449zM11.6 49.449h-1.456c-.276 0-.5-.224-.5-.5s.224-.5.5-.5H11.6c.276 0 .5.224.5.5S11.876 49.449 11.6 49.449zM20.736 45.719h-5.028c-.276 0-.5-.224-.5-.5s.224-.5.5-.5h5.028c.276 0 .5.224.5.5S21.012 45.719 20.736 45.719zM20.736 43.854h-1.257c-.276 0-.5-.224-.5-.5s.224-.5.5-.5h1.257c.276 0 .5.224.5.5S21.012 43.854 20.736 43.854zM17.467 51.314h-1.759c-.276 0-.5-.224-.5-.5s.224-.5.5-.5h1.759c.276 0 .5.224.5.5S17.743 51.314 17.467 51.314z"/><path fill="#fdfcef" d="M79.163,59.51c1.883,0,3.517,0,3.54,0c2.11,0,3.821-1.674,3.821-3.739c0-1.802-1.302-3.305-3.035-3.66c0.02-0.158,0.034-0.317,0.034-0.48c0-2.139-1.772-3.873-3.957-3.873c-1.29,0-2.433,0.607-3.155,1.543c-0.185-2.381-2.358-4.218-4.9-3.913c-1.859,0.223-3.397,1.629-3.739,3.431c-0.11,0.578-0.098,1.139,0.011,1.665c-0.498-0.525-1.208-0.856-1.998-0.856c-1.446,0-2.627,1.102-2.72,2.494c-0.657-0.142-1.371-0.133-2.123,0.143c-1.438,0.528-2.462,1.853-2.522,3.356c-0.085,2.133,1.657,3.889,3.818,3.889c0.164,0,0.741,0,0.874,0h7.934 M72.686,59.51h0.36"/><path fill="#472b29" d="M82.703,60.01h-3.541c-0.276,0-0.5-0.224-0.5-0.5s0.224-0.5,0.5-0.5h3.541c1.831,0,3.32-1.453,3.32-3.239c0-1.524-1.108-2.857-2.635-3.169c-0.256-0.053-0.429-0.294-0.396-0.553c0.018-0.138,0.03-0.276,0.03-0.418c0-1.86-1.551-3.373-3.457-3.373c-1.092,0-2.098,0.491-2.76,1.348c-0.127,0.164-0.34,0.23-0.539,0.174c-0.198-0.06-0.339-0.234-0.355-0.44c-0.079-1.02-0.566-1.944-1.37-2.604c-0.829-0.681-1.885-0.979-2.973-0.853c-1.646,0.197-3.006,1.442-3.307,3.029c-0.094,0.494-0.09,0.988,0.01,1.47c0.045,0.219-0.06,0.441-0.258,0.545c-0.197,0.103-0.44,0.063-0.595-0.1c-0.429-0.451-1.009-0.7-1.635-0.7c-1.169,0-2.145,0.891-2.221,2.028c-0.01,0.146-0.082,0.279-0.198,0.366c-0.116,0.087-0.264,0.122-0.407,0.089c-0.639-0.137-1.242-0.099-1.845,0.124c-1.262,0.463-2.144,1.632-2.195,2.906c-0.035,0.875,0.283,1.707,0.895,2.345c0.635,0.66,1.496,1.024,2.423,1.024h8.808c0.276,0,0.5,0.224,0.5,0.5s-0.224,0.5-0.5,0.5h-8.808c-1.185,0-2.331-0.485-3.145-1.332c-0.802-0.835-1.218-1.928-1.172-3.076c0.066-1.675,1.211-3.204,2.849-3.807c0.61-0.225,1.241-0.307,1.88-0.243c0.344-1.396,1.629-2.425,3.136-2.425c0.493,0,0.976,0.113,1.414,0.323c0.009-0.241,0.036-0.483,0.082-0.725c0.381-2.01,2.097-3.587,4.17-3.835c1.363-0.166,2.685,0.218,3.726,1.071c0.748,0.613,1.279,1.409,1.547,2.303c0.791-0.648,1.786-1.007,2.842-1.007c2.458,0,4.457,1.962,4.457,4.373c0,0.034,0,0.068-0.001,0.103c1.764,0.555,3.003,2.188,3.003,4.037C87.024,58.109,85.086,60.01,82.703,60.01z M73.045,60.01h-0.359c-0.276,0-0.5-0.224-0.5-0.5s0.224-0.5,0.5-0.5h0.359c0.276,0,0.5,0.224,0.5,0.5S73.322,60.01,73.045,60.01z"/><path fill="#472b29" d="M80.996 54.208c-.018 0-.036-.002-.054-.006-.135-.03-.22-.164-.19-.299.037-.165.094-.327.169-.479.605-1.224 2.273-1.676 3.722-1.006.125.058.18.206.122.331-.058.126-.207.179-.332.122-1.206-.557-2.578-.208-3.063.773-.058.117-.101.241-.129.368C81.214 54.128 81.111 54.208 80.996 54.208zM75.837 60.01H74.73c-.276 0-.5-.224-.5-.5s.224-.5.5-.5h1.107c.276 0 .5.224.5.5S76.113 60.01 75.837 60.01z"/><path fill="#fff" d="M71.567 21.307H61.536c-.276 0-.5-.224-.5-.5s.224-.5.5-.5h10.031c.276 0 .5.224.5.5S71.844 21.307 71.567 21.307zM74.448 21.307h-1.446c-.276 0-.5-.224-.5-.5s.224-.5.5-.5h1.446c.276 0 .5.224.5.5S74.724 21.307 74.448 21.307zM78.503 21.307h-2.546c-.276 0-.5-.224-.5-.5s.224-.5.5-.5h2.546c.276 0 .5.224.5.5S78.779 21.307 78.503 21.307zM76.477 17.578h-9.616c-.276 0-.5-.224-.5-.5s.224-.5.5-.5h9.616c.276 0 .5.224.5.5S76.753 17.578 76.477 17.578zM65.129 17.578h-.58c-.276 0-.5-.224-.5-.5s.224-.5.5-.5h.58c.276 0 .5.224.5.5S65.406 17.578 65.129 17.578zM62.752 17.578h-1.457c-.276 0-.5-.224-.5-.5s.224-.5.5-.5h1.457c.276 0 .5.224.5.5S63.029 17.578 62.752 17.578zM73.914 19.442h-5.027c-.276 0-.5-.224-.5-.5s.224-.5.5-.5h5.027c.276 0 .5.224.5.5S74.19 19.442 73.914 19.442z"/><path fill="#fff" d="M73.914 17.578h-1.257c-.276 0-.5-.224-.5-.5s.224-.5.5-.5h1.257c.276 0 .5.224.5.5S74.19 17.578 73.914 17.578zM67.431 19.442h-1.758c-.276 0-.5-.224-.5-.5s.224-.5.5-.5h1.758c.276 0 .5.224.5.5S67.707 19.442 67.431 19.442z"/><path fill="#472b29" d="M54.383,75.798c-0.276,0-0.5-0.224-0.5-0.5V51.563c0-0.276,0.224-0.5,0.5-0.5s0.5,0.224,0.5,0.5v23.735C54.883,75.575,54.659,75.798,54.383,75.798z"/><path fill="#472b29" d="M67.262,75.798H42.826c-0.276,0-0.5-0.224-0.5-0.5s0.224-0.5,0.5-0.5h24.436c1.472,0,2.669-1.197,2.669-2.669V59.51c0-0.276,0.224-0.5,0.5-0.5s0.5,0.224,0.5,0.5v12.619C70.931,74.153,69.285,75.798,67.262,75.798z"/><path fill="#616493" d="M54.383 73.19699999999999A1.751 1.751 0 1 0 54.383 76.699A1.751 1.751 0 1 0 54.383 73.19699999999999Z"/><path fill="#472b29" d="M54.383,77.074c-1.172,0-2.126-0.954-2.126-2.126s0.954-2.126,2.126-2.126s2.126,0.954,2.126,2.126S55.555,77.074,54.383,77.074z M54.383,73.572c-0.759,0-1.376,0.617-1.376,1.376s0.617,1.376,1.376,1.376s1.376-0.617,1.376-1.376S55.142,73.572,54.383,73.572z"/><path fill="#f1bc19" d="M53.201,61.067v1.795c0,0.65,0.532,1.182,1.182,1.182c0.65,0,1.182-0.532,1.182-1.182v-1.795H53.201z"/><path fill="#472b29" d="M54.383,64.543c-0.928,0-1.682-0.754-1.682-1.682v-1.795c0-0.276,0.224-0.5,0.5-0.5h2.364c0.276,0,0.5,0.224,0.5,0.5v1.795C56.065,63.79,55.31,64.543,54.383,64.543z M53.701,61.567v1.295c0,0.376,0.306,0.682,0.682,0.682s0.682-0.306,0.682-0.682v-1.295H53.701z"/><path fill="#bcbce2" d="M70.513,44.775c-0.051-2.43,1.264-3.969,3.467-4.822c-0.135-1.327-1.679-5.058-2.462-5.946c-2.114,0.989-4.116,0.839-5.801-0.825c-1.712-1.69-1.847-3.713-0.852-5.871c-1.857-1.143-3.849-1.969-5.977-2.463c-0.72,2.095-2.117,3.407-4.306,3.568c-2.595,0.191-4.277-1.15-5.166-3.548c-2.13,0.521-4.114,1.344-5.955,2.496c1.013,2.139,0.882,4.14-0.784,5.833c-1.686,1.714-3.703,1.874-5.869,0.877c-1.129,1.857-1.939,3.844-2.425,5.972c2.165,0.794,3.47,2.279,3.525,4.582c0.057,2.396-1.234,3.963-3.459,4.829c0.512,2.111,1.347,4.075,2.499,5.914c2.1-0.936,4.062-0.781,5.717,0.829c1.687,1.641,1.891,3.623,0.958,5.765c1.858,1.13,3.834,1.937,5.949,2.426c0.032-0.063,0.055-0.101,0.071-0.141c0.764-1.992,2.501-3.267,4.487-3.292c2.124-0.027,3.883,1.157,4.697,3.181c0.089,0.221,0.19,0.216,0.38,0.168c1.914-0.484,3.718-1.229,5.414-2.239c0.093-0.055,0.18-0.118,0.254-0.167c-0.862-1.943-0.783-3.786,0.595-5.392c1.656-1.929,3.737-2.213,6.053-1.227c1.142-1.847,1.966-3.816,2.467-5.922C71.853,48.542,70.561,47.08,70.513,44.775z M54.179,48.093c-1.929-0.009-3.483-1.572-3.474-3.494c0.009-1.927,1.579-3.472,3.523-3.454c1.941,0.019,3.491,1.627,3.435,3.576C57.611,46.533,56.138,48.082,54.179,48.093z"/><path fill="#472b29" d="M49.543,65.087c-0.043,0-0.087-0.005-0.129-0.015c-2.17-0.502-4.24-1.346-6.155-2.509c-0.299-0.183-0.418-0.557-0.278-0.878c0.864-1.986,0.601-3.616-0.805-4.984c-1.372-1.336-2.99-1.562-4.944-0.691c-0.317,0.144-0.693,0.028-0.878-0.269c-1.192-1.903-2.062-3.963-2.585-6.12c-0.083-0.341,0.1-0.69,0.426-0.817c2.075-0.807,3.061-2.168,3.013-4.159c-0.045-1.913-1.048-3.202-3.066-3.942c-0.331-0.121-0.52-0.47-0.441-0.813c0.498-2.179,1.342-4.257,2.509-6.179c0.185-0.303,0.567-0.422,0.891-0.272c2.018,0.928,3.68,0.689,5.078-0.732c1.379-1.402,1.592-3.052,0.649-5.042c-0.152-0.321-0.04-0.705,0.261-0.894c1.874-1.172,3.946-2.041,6.16-2.582c0.341-0.085,0.698,0.102,0.822,0.437c0.832,2.239,2.287,3.244,4.459,3.093c1.816-0.135,3.025-1.147,3.696-3.098c0.117-0.34,0.473-0.538,0.82-0.454c2.177,0.505,4.258,1.362,6.186,2.548c0.302,0.187,0.417,0.568,0.269,0.89c-0.934,2.026-0.703,3.688,0.708,5.08c1.403,1.386,3.043,1.61,5.012,0.689c0.282-0.132,0.617-0.062,0.822,0.172c0.883,1.003,2.482,4.853,2.632,6.338c0.032,0.313-0.149,0.609-0.443,0.723c-2.074,0.804-3.062,2.163-3.02,4.155l0,0c0.04,1.891,1.028,3.182,3.024,3.945c0.328,0.125,0.512,0.474,0.431,0.815c-0.513,2.157-1.372,4.22-2.553,6.129c-0.182,0.294-0.552,0.409-0.869,0.276c-2.146-0.913-3.864-0.574-5.248,1.038c-1.131,1.317-1.29,2.84-0.486,4.653c0.139,0.313,0.03,0.682-0.257,0.869c-0.132,0.089-0.205,0.139-0.281,0.184c-1.743,1.037-3.627,1.816-5.598,2.314c-0.764,0.194-1.079-0.284-1.201-0.585c-0.692-1.722-2.176-2.743-3.979-2.743c-0.02,0-0.04,0-0.06,0.001c-1.706,0.021-3.178,1.11-3.842,2.843c-0.011,0.026-0.064,0.139-0.078,0.164C50.09,64.906,49.814,65.087,49.543,65.087z M49.597,64.279l0.028,0.009l-0.027-0.013L49.597,64.279z M44.492,61.665c1.476,0.838,3.045,1.478,4.678,1.906c0.932-1.994,2.834-3.286,4.95-3.313c2.344,0.006,4.236,1.195,5.212,3.291c1.654-0.447,3.214-1.095,4.672-1.933c-0.739-2.073-0.422-3.987,0.931-5.563c1.655-1.929,3.818-2.487,6.286-1.636c0.851-1.469,1.5-3.027,1.938-4.648c-2.146-1.008-3.3-2.719-3.347-4.979c-0.05-2.396,1.115-4.205,3.378-5.262c-0.308-1.272-1.264-3.596-1.915-4.657c-2.282,0.878-4.365,0.474-6.05-1.191c-1.688-1.667-2.112-3.758-1.241-6.078c-1.476-0.848-3.041-1.493-4.667-1.926c-0.907,2.093-2.516,3.277-4.685,3.438c-2.592,0.183-4.53-0.988-5.633-3.415c-1.653,0.455-3.214,1.109-4.657,1.949c0.881,2.283,0.483,4.361-1.167,6.04c-1.67,1.698-3.76,2.13-6.074,1.267c-0.835,1.474-1.471,3.041-1.896,4.672c2.174,0.985,3.347,2.698,3.401,4.985c0.057,2.383-1.092,4.187-3.331,5.25c0.446,1.618,1.104,3.174,1.961,4.638c2.241-0.807,4.275-0.395,5.915,1.198C44.831,57.333,45.289,59.385,44.492,61.665z M54.179,48.793c-0.001,0-0.003,0-0.004,0c-2.31-0.012-4.181-1.895-4.171-4.197c0.005-1.117,0.445-2.164,1.239-2.946c0.798-0.788,1.88-1.182,2.991-1.205c1.128,0.011,2.18,0.465,2.962,1.277c0.784,0.814,1.198,1.887,1.166,3.019c-0.064,2.259-1.9,4.039-4.179,4.053C54.182,48.793,54.18,48.793,54.179,48.793z M54.193,41.845c-0.744,0-1.441,0.283-1.966,0.801c-0.527,0.52-0.818,1.215-0.822,1.956c-0.007,1.53,1.237,2.781,2.773,2.791c1.519-0.011,2.742-1.192,2.785-2.691c0.021-0.754-0.253-1.468-0.775-2.009c-0.519-0.54-1.218-0.841-1.967-0.848C54.212,41.845,54.202,41.845,54.193,41.845z"/><path fill="#7878aa" d="M66.783,41.571c-1.759-6.841-8.789-10.975-15.7-9.234c-6.912,1.742-11.088,8.699-9.329,15.54c1.759,6.841,8.789,10.975,15.7,9.234C64.366,55.37,68.543,48.413,66.783,41.571z M56.813,54.617c-5.519,1.391-11.133-1.91-12.538-7.374c-1.405-5.463,1.93-11.019,7.45-12.41c5.519-1.391,10.909,2.076,12.314,7.54C65.444,47.836,62.332,53.226,56.813,54.617z"/><path fill="#472b29" d="M54.231 55.243c-4.63 0-8.86-3.127-10.053-7.814-1.411-5.542 1.951-11.199 7.493-12.61 5.542-1.41 11.2 1.951 12.61 7.493 1.411 5.543-1.951 11.2-7.493 12.61C55.933 55.139 55.075 55.243 54.231 55.243zM54.228 34.997c-.804 0-1.62.099-2.434.306-5.275 1.344-8.475 6.729-7.132 12.003s6.726 8.472 12.003 7.132c5.275-1.343 8.475-6.728 7.132-12.003C62.661 37.973 58.634 34.997 54.228 34.997zM42.048 40.568c-.028 0-.057-.005-.084-.015-.13-.047-.197-.19-.151-.32 1.482-4.124 4.899-7.231 9.14-8.311.134-.031.27.047.304.181s-.047.27-.181.304c-4.08 1.038-7.367 4.027-8.792 7.996C42.246 40.504 42.15 40.568 42.048 40.568z"/><path fill="#472b29" d="M54.501,57.64c-1.323,0-2.671-0.194-4.007-0.591c-4.554-1.353-7.936-4.768-9.044-9.135c-0.034-0.134,0.047-0.27,0.181-0.304c0.134-0.031,0.27,0.047,0.304,0.181c1.065,4.194,4.318,7.477,8.702,8.778c4.417,1.312,8.972,0.327,12.183-2.631c0.102-0.094,0.26-0.086,0.354,0.015c0.093,0.102,0.087,0.259-0.015,0.353C60.789,56.49,57.721,57.64,54.501,57.64z"/><path fill="#a2a2cc" d="M65.522,50.858c-0.266,0.488-0.563,0.959-0.888,1.409"/><path fill="#472b29" d="M64.633,52.518c-0.051,0-0.102-0.016-0.146-0.048c-0.112-0.08-0.137-0.236-0.056-0.349c0.314-0.435,0.608-0.899,0.872-1.383c0.066-0.122,0.219-0.165,0.339-0.1c0.121,0.066,0.166,0.219,0.099,0.34c-0.274,0.501-0.579,0.984-0.905,1.436C64.787,52.482,64.71,52.518,64.633,52.518z"/><path fill="#a2a2cc" d="M66.783,47.533c-0.177,0.774-0.425,1.532-0.741,2.261"/><path fill="#472b29" d="M66.042 50.043c-.033 0-.067-.007-.1-.021-.126-.055-.185-.202-.13-.329.31-.713.554-1.459.727-2.217.03-.135.165-.219.299-.188.135.031.219.165.188.3-.18.787-.434 1.562-.755 2.305C66.231 49.987 66.139 50.043 66.042 50.043zM66.703 41.736c-.112 0-.213-.075-.242-.188-1.05-4.126-4.081-7.427-8.107-8.831-.13-.046-.199-.188-.153-.318.045-.131.188-.194.318-.154 4.184 1.46 7.334 4.892 8.426 9.181.034.134-.047.27-.181.304C66.744 41.733 66.723 41.736 66.703 41.736z"/><path fill="#a2a2cc" d="M58.786 35.51L62.215 34.68"/><path fill="#472b29" d="M58.786,35.635c-0.057,0-0.107-0.038-0.122-0.096c-0.016-0.067,0.025-0.135,0.092-0.15l3.429-0.83c0.068-0.021,0.134,0.024,0.151,0.092c0.016,0.067-0.025,0.135-0.092,0.15l-3.429,0.83C58.805,35.634,58.796,35.635,58.786,35.635z"/><path fill="#a2a2cc" d="M61.776 37.481L64.356 37.054"/><path fill="#472b29" d="M61.776,37.606c-0.06,0-0.113-0.043-0.124-0.104c-0.011-0.068,0.035-0.133,0.103-0.144l2.58-0.427c0.066-0.007,0.133,0.034,0.144,0.103s-0.035,0.133-0.103,0.144l-2.58,0.427C61.789,37.605,61.783,37.606,61.776,37.606z"/><path fill="#a2a2cc" d="M63.448 40.128L66.065 39.846"/><path fill="#472b29" d="M63.449,40.252c-0.063,0-0.117-0.048-0.125-0.111c-0.007-0.069,0.042-0.131,0.111-0.138l2.617-0.281c0.064-0.02,0.129,0.043,0.138,0.11c0.007,0.069-0.042,0.131-0.111,0.138l-2.617,0.281C63.457,40.252,63.453,40.252,63.449,40.252z"/><path fill="#a2a2cc" d="M49.284 32.899L49.542 35.294"/><path fill="#472b29" d="M49.542,35.419c-0.063,0-0.117-0.048-0.125-0.111l-0.258-2.396c-0.007-0.069,0.042-0.131,0.111-0.138c0.067-0.021,0.129,0.043,0.138,0.11l0.258,2.396c0.007,0.069-0.042,0.131-0.111,0.138C49.551,35.419,49.547,35.419,49.542,35.419z"/><path fill="#a2a2cc" d="M46.739 34.241L47.529 36.889"/><path fill="#472b29" d="M47.529,37.014c-0.054,0-0.104-0.035-0.12-0.089l-0.79-2.648c-0.02-0.066,0.018-0.136,0.084-0.156c0.068-0.017,0.136,0.019,0.155,0.084l0.79,2.648c0.02,0.066-0.018,0.136-0.084,0.156C47.553,37.012,47.541,37.014,47.529,37.014z"/><path fill="#a2a2cc" d="M44.185 36.581L45.741 38.886"/><path fill="#472b29" d="M45.741,39.011c-0.04,0-0.08-0.02-0.104-0.055l-1.556-2.305c-0.039-0.058-0.023-0.136,0.034-0.174c0.057-0.039,0.135-0.023,0.173,0.033l1.556,2.305c0.039,0.058,0.023,0.136-0.034,0.174C45.789,39.004,45.765,39.011,45.741,39.011z"/><path fill="#a2a2cc" d="M42.327 49.499L44.981 49.362"/><path fill="#472b29" d="M42.327,49.625c-0.066,0-0.122-0.052-0.125-0.118c-0.003-0.069,0.05-0.128,0.119-0.132l2.654-0.138c0.07-0.017,0.127,0.05,0.131,0.118c0.003,0.069-0.05,0.128-0.119,0.132l-2.654,0.138C42.331,49.625,42.329,49.625,42.327,49.625z"/><path fill="#a2a2cc" d="M43.926 52.38L46.501 51.612"/><path fill="#472b29" d="M43.926,52.505c-0.054,0-0.104-0.035-0.12-0.089c-0.02-0.066,0.018-0.136,0.084-0.156l2.575-0.769c0.066-0.016,0.136,0.019,0.155,0.084c0.02,0.066-0.018,0.136-0.084,0.156l-2.575,0.769C43.95,52.503,43.937,52.505,43.926,52.505z"/><path fill="#a2a2cc" d="M46.695 54.789L48.869 53.672"/><path fill="#472b29" d="M46.695,54.915c-0.045,0-0.089-0.024-0.111-0.067c-0.031-0.062-0.007-0.138,0.054-0.169l2.174-1.117c0.059-0.03,0.136-0.009,0.168,0.054c0.031,0.062,0.007,0.138-0.054,0.169l-2.174,1.117C46.734,54.91,46.715,54.915,46.695,54.915z"/><path fill="#a2a2cc" d="M50.241 56.447L51.848 54.911"/><path fill="#472b29" d="M50.241,56.572c-0.033,0-0.066-0.013-0.09-0.039c-0.048-0.05-0.046-0.129,0.004-0.177l1.606-1.535c0.051-0.046,0.13-0.046,0.177,0.005c0.048,0.05,0.046,0.129-0.004,0.177l-1.606,1.535C50.303,56.56,50.272,56.572,50.241,56.572z"/><path fill="#a2a2cc" d="M54.068 57.377L55.315 55.053"/><path fill="#472b29" d="M54.068,57.501c-0.02,0-0.041-0.005-0.059-0.015c-0.061-0.033-0.083-0.108-0.051-0.17l1.248-2.323c0.033-0.061,0.11-0.082,0.169-0.051c0.061,0.033,0.083,0.108,0.051,0.17l-1.248,2.323C54.155,57.478,54.112,57.501,54.068,57.501z"/><path fill="#a2a2cc" d="M58.197 56.712L58.393 54.269"/><path fill="#472b29" d="M58.197,56.836c-0.003,0-0.007,0-0.01,0c-0.068-0.006-0.12-0.066-0.114-0.135l0.196-2.442c0.006-0.068,0.069-0.111,0.135-0.115c0.068,0.006,0.12,0.066,0.114,0.135l-0.196,2.442C58.316,56.787,58.262,56.836,58.197,56.836z"/><path fill="#a2a2cc" d="M52.331,31.873c0.787-0.108,1.583-0.142,2.377-0.104"/><path fill="#472b29" d="M52.33 32.123c-.123 0-.23-.091-.247-.216-.019-.137.077-.264.214-.282.803-.109 1.619-.144 2.422-.105.138.007.244.124.237.263-.006.138-.117.249-.262.237-.773-.041-1.558-.005-2.331.102C52.353 32.122 52.342 32.123 52.33 32.123zM31.841 59.906c-.276 0-.5-.224-.5-.5V42.598c0-2.452-1.995-4.447-4.447-4.447h-2.519c-.276 0-.5-.224-.5-.5s.224-.5.5-.5h2.519c3.003 0 5.447 2.443 5.447 5.447v16.808C32.341 59.682 32.117 59.906 31.841 59.906z"/><path fill="#472b29" d="M22.262,40.384c-1.264,0-2.292-1.028-2.292-2.292s1.028-2.291,2.292-2.291s2.292,1.027,2.292,2.291S23.526,40.384,22.262,40.384z M22.262,36.801c-0.712,0-1.292,0.579-1.292,1.291c0,0.713,0.58,1.292,1.292,1.292c0.712,0,1.292-0.579,1.292-1.292C23.554,37.38,22.974,36.801,22.262,36.801z"/><path fill="#fdfcef" d="M32.173,78.366c0,0,11.691,0,11.762,0c2.7,0,4.888-2.189,4.888-4.889c0-2.355-1.666-4.321-3.884-4.784c0.026-0.206,0.043-0.415,0.043-0.628c0-2.796-2.267-5.063-5.063-5.063c-1.651,0-3.113,0.794-4.037,2.017c-0.236-3.113-3.017-5.514-6.27-5.116c-2.379,0.291-4.346,2.13-4.784,4.486c-0.14,0.756-0.126,1.489,0.014,2.177c-0.638-0.687-1.546-1.119-2.557-1.119c-1.85,0-3.361,1.441-3.48,3.261c-0.84-0.186-1.754-0.174-2.717,0.188c-1.84,0.691-3.15,2.423-3.227,4.387c-0.109,2.789,2.12,5.085,4.885,5.085c0.21,0,0.948,0,1.118,0h10.151"/><path fill="#472b29" d="M43.934,78.866H32.173c-0.276,0-0.5-0.224-0.5-0.5s0.224-0.5,0.5-0.5h11.762c2.42,0,4.389-1.969,4.389-4.389c0-2.066-1.466-3.872-3.486-4.295c-0.254-0.053-0.425-0.292-0.394-0.551c0.023-0.186,0.039-0.374,0.039-0.566c0-2.517-2.047-4.563-4.563-4.563c-1.438,0-2.765,0.663-3.638,1.818c-0.125,0.166-0.338,0.236-0.54,0.178c-0.199-0.059-0.342-0.234-0.357-0.441c-0.104-1.377-0.779-2.671-1.85-3.549c-1.083-0.888-2.454-1.282-3.86-1.109c-2.166,0.266-3.956,1.943-4.353,4.081c-0.125,0.668-0.12,1.336,0.012,1.986c0.045,0.22-0.062,0.441-0.261,0.544c-0.199,0.104-0.442,0.06-0.595-0.104c-0.575-0.618-1.353-0.959-2.19-0.959c-1.569,0-2.878,1.228-2.981,2.795c-0.01,0.146-0.083,0.279-0.199,0.367c-0.117,0.087-0.266,0.117-0.408,0.088c-0.827-0.184-1.645-0.127-2.432,0.167c-1.669,0.627-2.836,2.209-2.903,3.938c-0.047,1.207,0.387,2.35,1.222,3.218s1.958,1.347,3.163,1.347h11.269c0.276,0,0.5,0.224,0.5,0.5s-0.224,0.5-0.5,0.5H17.747c-1.479,0-2.858-0.587-3.884-1.653s-1.558-2.469-1.5-3.95c0.083-2.126,1.51-4.069,3.551-4.835c0.801-0.302,1.629-0.401,2.467-0.3c0.377-1.822,1.998-3.182,3.905-3.182c0.684,0,1.354,0.18,1.944,0.51c0-0.386,0.035-0.772,0.107-1.159c0.476-2.562,2.62-4.573,5.215-4.891c1.678-0.205,3.32,0.266,4.616,1.328c1.003,0.823,1.716,1.951,2.038,3.193c1.012-0.916,2.319-1.426,3.714-1.426c3.067,0,5.563,2.496,5.563,5.563c0,0.083-0.002,0.166-0.007,0.248c2.254,0.674,3.848,2.777,3.848,5.164C49.323,76.449,46.906,78.866,43.934,78.866z"/><path fill="#fdfcef" d="M29.339,67.597c-1.808-0.119-3.365,1.13-3.476,2.789c-0.014,0.206-0.005,0.409,0.025,0.606c-0.349-0.394-0.865-0.661-1.458-0.7c-1.085-0.071-2.022,0.645-2.158,1.62c-0.197-0.054-0.403-0.09-0.616-0.104c-1.582-0.104-2.944,0.989-3.042,2.441"/><path fill="#472b29" d="M18.615,74.499c-0.005,0-0.011,0-0.017-0.001c-0.138-0.009-0.242-0.128-0.233-0.266c0.107-1.588,1.577-2.816,3.308-2.673c0.135,0.008,0.272,0.025,0.408,0.052c0.274-0.969,1.255-1.65,2.366-1.567c0.425,0.027,0.824,0.16,1.164,0.382c0-0.019,0.002-0.037,0.003-0.056c0.121-1.795,1.789-3.162,3.743-3.021c0.138,0.009,0.242,0.128,0.233,0.266s-0.127,0.255-0.266,0.232c-1.657-0.118-3.108,1.036-3.21,2.557c-0.012,0.184-0.004,0.37,0.023,0.553c0.017,0.109-0.041,0.217-0.141,0.264c-0.101,0.048-0.22,0.022-0.293-0.061c-0.318-0.359-0.787-0.584-1.288-0.617c-0.934-0.047-1.774,0.555-1.893,1.404c-0.01,0.071-0.05,0.135-0.11,0.175c-0.06,0.04-0.135,0.051-0.203,0.032c-0.188-0.051-0.379-0.083-0.567-0.096c-1.44-0.096-2.688,0.896-2.776,2.208C18.855,74.397,18.745,74.499,18.615,74.499z"/><path fill="#fdfcef" d="M45.914,69.266c-1.699-0.801-3.664-0.234-4.389,1.267c-0.09,0.186-0.157,0.379-0.201,0.574"/><path fill="#472b29" d="M41.324,71.356c-0.018,0-0.037-0.002-0.056-0.006c-0.134-0.031-0.219-0.165-0.188-0.3c0.049-0.216,0.123-0.427,0.22-0.627c0.783-1.62,2.901-2.241,4.72-1.384c0.125,0.06,0.179,0.208,0.12,0.333c-0.059,0.126-0.209,0.176-0.333,0.12c-1.574-0.743-3.394-0.227-4.057,1.148c-0.081,0.166-0.142,0.341-0.183,0.521C41.541,71.278,41.438,71.356,41.324,71.356z"/></svg>